<svg width="221" height="69" viewBox="0 0 221 69" fill="none" xmlns="http://www.w3.org/2000/svg">
<g clip-path="url(#clip0_2316_699)">
<path d="M8.58152 30.7357H12.0968V37.7469H12.7689L15.8706 34.6682H20.4974L15.7931 39.0664L21.0661 44.0337H16.5685L12.7947 40.2823H12.0968V44.0337H8.58152V30.7357Z" fill="#838586"/>
<path d="M22.1 40.748C22.1 38.1867 23.8577 38.0574 27.2696 38.0574C29.2082 38.0574 30.268 38.1091 30.94 38.8077V37.9798C30.94 37.0743 30.6557 36.7379 29.2857 36.7379H27.2179C26.184 36.7379 25.8996 36.8414 25.848 37.4882H22.436C22.436 34.9528 23.6767 34.5388 26.6492 34.5388H30.7591C33.1888 34.5388 34.4553 35.703 34.4553 37.9021V44.0596H31.1209V42.9471C30.1387 43.9561 29.7768 44.1631 28.0192 44.1631H25.6153C23.4699 44.189 22.1 43.6974 22.1 41.4983V40.748ZM28.3811 41.964C30.8108 41.964 31.0175 41.6018 31.0175 40.9809C31.0175 40.2823 30.8108 40.0236 28.8722 40.0236H27.3213C25.8221 40.0236 25.5119 40.36 25.5119 41.1361C25.5119 41.7312 25.9772 41.9899 27.373 41.9899H28.3811V41.964Z" fill="#838586"/>
<path d="M36.7558 30.7357H40.2711V36.4016H40.297C40.5296 34.9269 42.0029 34.5388 43.4504 34.5388H44.4843C48.956 34.5388 49.4988 36.1429 49.4988 38.5231V40.2047C49.4988 42.5849 48.956 44.189 44.4843 44.189H43.4504C41.3309 44.189 40.452 43.4646 40.0643 42.3262H40.0385V44.0596H36.7299V30.7357H36.7558ZM40.0385 39.7908C40.0385 41.2137 40.7622 41.5242 42.158 41.5242H44.2258C45.906 41.5242 46.0869 40.9291 46.0869 39.8943V38.7818C46.0869 37.7469 45.9318 37.1519 44.2258 37.1519H42.158C40.7622 37.1519 40.0385 37.4623 40.0385 38.8853V39.7908Z" fill="#838586"/>
<path d="M55.3146 33.4781H51.7993V30.7357H55.3146V33.4781ZM55.3146 44.0337H51.7993V34.6682H55.3146V44.0337Z" fill="#1770B8"/>
<path d="M57.3825 38.8335C57.3825 35.2891 59.1401 34.5129 61.7249 34.5129H65.6797C68.2903 34.5129 69.8929 35.4702 69.8929 37.6176V38.4713H66.4809C66.4809 37.5141 65.9898 37.1777 64.439 37.1777H63.069C61.5957 37.1777 60.8978 37.5917 60.8978 38.6007V39.8425C60.8978 41.0585 61.6732 41.4207 62.7588 41.4207H64.5682C65.5504 41.4207 66.4551 41.1879 66.4551 40.3341V40.1012H69.867V40.9291C69.867 43.4387 67.7733 44.1631 65.7572 44.1631H62.1643C59.838 44.1631 57.3825 43.7233 57.3825 39.7132V38.8335Z" fill="#1770B8"/>
<path d="M71.6505 38.8335C71.6505 35.2891 73.4082 34.5129 75.993 34.5129H78.4485C82.1965 34.5129 83.7215 35.315 83.7215 38.5489V40.1271H75.1658V40.6963C75.1658 41.6794 75.8637 41.964 77.3371 41.964H78.4227C80.3354 41.964 80.413 41.4466 80.413 40.9033H83.7474V41.3172C83.7474 43.6715 81.6537 44.189 79.0947 44.189H76.4582C74.1319 44.189 71.6764 43.7492 71.6764 39.739V38.8335H71.6505ZM80.3354 38.0315C80.3354 36.919 79.8185 36.712 77.7765 36.712C75.476 36.712 75.2175 36.919 75.2175 38.0315H80.3354Z" fill="#1770B8"/>
<path d="M85.9186 30.7357H92.1738L96.7747 39.2992L101.376 30.7357H107.631V44.0337H103.676V34.4871H103.65L98.2998 44.0337H95.2497L89.8992 34.4871H89.8733V44.0337H85.9186V30.7357Z" fill="#838586"/>
<path d="M110.035 35.3926C110.035 31.486 112.206 30.5804 115.876 30.5804H122.416C126.086 30.5804 128.258 31.486 128.258 35.3926V39.351C128.258 43.2576 126.086 44.1631 122.416 44.1631H115.876C112.206 44.1631 110.035 43.2317 110.035 39.351V35.3926ZM114.222 38.0833C114.222 40.0236 114.636 40.748 116.548 40.748H121.744C123.682 40.748 124.07 40.0236 124.07 38.0833V36.6603C124.07 35.0045 123.657 33.9955 121.511 33.9955H116.729C114.584 33.9955 114.17 35.0045 114.17 36.6603V38.0833H114.222Z" fill="#838586"/>
<path d="M130.636 30.7357H142.371C145.627 30.7357 147.204 31.6153 147.204 34.2283C147.204 36.5051 146.377 36.9449 145.24 37.2812V37.333C147.023 37.5658 147.669 38.4972 147.669 40.5152C147.669 43.4387 145.938 44.0337 143.611 44.0337H130.636V30.7357ZM134.72 35.9876H141.931C142.681 35.9876 143.12 35.703 143.12 34.9528C143.12 34.1766 142.681 33.9179 141.931 33.9179H134.72V35.9876ZM134.72 40.8256H142.034C142.913 40.8256 143.508 40.6187 143.508 39.8425C143.508 38.937 142.913 38.73 142.034 38.73H134.72V40.8256Z" fill="#838586"/>
<path d="M150.047 30.7357H154.131V44.0337H150.047V30.7357Z" fill="#838586"/>
<path d="M156.768 30.7357H160.852V40.6187H170.002V44.0337H156.768V30.7357Z" fill="#838586"/>
<path d="M0 27.6828H130.067C152.529 27.6828 161.886 22.2497 168.58 18.1102C176.955 13.2981 194.273 0 194.273 0H185.123C185.123 0 172.587 10.8661 169.227 13.2981C165.866 15.73 154.416 26.234 130.067 26.234H0V27.6828Z" fill="#A1D9F8"/>
<path d="M220.199 69C220.044 68.8707 204.716 56.6074 197.504 52.5197C194.066 50.5793 186.571 48.2509 170.312 48.2509H86.3839V46.9573H170.312C183.598 46.9573 192.955 48.4578 198.15 51.4072C205.44 55.5467 220.38 67.4995 221 68.0169L220.199 69Z" fill="#A1D9F8"/>
</g>
<defs>
<clipPath id="clip0_2316_699">
<rect width="221" height="69" fill="white"/>
</clipPath>
</defs>
</svg>
